<?xml version="1.0" standalone="no"?>
<!DOCTYPE svg PUBLIC "-//W3C//DTD SVG 20010904//EN"
 "http://www.w3.org/TR/2001/REC-SVG-20010904/DTD/svg10.dtd">
<svg version="1.0" xmlns="http://www.w3.org/2000/svg"
 width="16.000000pt" height="16.000000pt" viewBox="0 0 16.000000 16.000000"
 preserveAspectRatio="xMidYMid meet">
<metadata>
Created by potrace 1.11, written by Peter Selinger 2001-2013
</metadata>
<g transform="translate(0.000000,16.000000) scale(0.005145,-0.005145)"
fill="#000000" stroke="none">
<path d="M0 2955 l0 -155 22 14 c16 9 85 17 213 25 563 34 698 42 1005 56 184
8 412 20 505 25 221 13 362 13 370 0 11 -18 46 -11 78 16 29 25 36 26 118 22
52 -2 94 -9 103 -17 11 -10 27 -11 54 -6 20 5 66 9 102 11 36 1 90 5 121 9 45
6 59 4 72 -10 41 -41 28 -89 -32 -118 -23 -11 -26 -17 -23 -59 3 -41 -5 -64
-58 -175 -33 -70 -68 -150 -77 -177 -8 -28 -21 -65 -29 -83 -8 -17 -14 -35
-14 -39 0 -4 -8 -26 -19 -48 -10 -23 -21 -49 -24 -58 -8 -24 -51 -50 -71 -42
-29 11 -36 49 -36 195 l0 139 -65 -1 c-50 -1 -71 3 -85 16 -20 18 -40 70 -38
95 1 8 -2 62 -7 120 -8 94 -10 101 -17 65 -20 -93 -27 -156 -29 -259 -2 -107
-2 -108 -20 -85 -10 13 -19 31 -19 40 0 9 -26 36 -57 60 -32 23 -65 50 -74 60
-9 10 -41 32 -70 50 -50 29 -82 41 -149 56 -14 3 -44 14 -67 25 -23 11 -47 16
-53 13 -6 -4 -46 -9 -88 -12 -42 -2 -113 -13 -157 -23 -44 -10 -113 -21 -154
-24 -84 -7 -151 -33 -175 -67 -104 -148 -122 -185 -145 -298 -16 -80 -19 -122
-15 -186 4 -45 4 -94 1 -108 -6 -22 -10 -24 -39 -18 -51 11 -159 -5 -224 -32
-34 -14 -91 -28 -135 -32 -96 -9 -106 -15 -86 -46 8 -13 18 -43 22 -66 5 -33
15 -49 45 -73 44 -35 82 -38 154 -14 51 18 120 13 152 -10 16 -12 19 -34 24
-173 l6 -158 -30 -32 c-16 -18 -37 -33 -47 -33 -9 0 -35 21 -57 48 -65 74 -84
94 -144 143 -48 39 -66 47 -113 53 -31 3 -70 13 -85 21 -42 22 -64 20 -57 -5
3 -11 2 -20 -1 -20 -4 0 -13 -4 -21 -9 -12 -8 -12 -12 2 -26 12 -12 17 -34 17
-77 0 -99 41 -154 110 -146 19 2 25 -2 25 -16 0 -23 -17 -33 -68 -41 -23 -4
-53 -19 -75 -39 -38 -35 -108 -76 -128 -76 -6 0 -23 9 -37 20 -27 22 -33 59
-42 285 -17 432 -27 560 -46 600 -19 40 -19 29 -19 -1002 l0 -1043 1555 0
1555 0 0 1555 0 1555 -1555 0 -1555 0 0 -155z m2947 -20 c31 -35 38 -105 38
-395 0 -251 0 -256 -23 -287 -13 -18 -30 -33 -38 -33 -29 0 -65 78 -74 163 -6
45 -10 83 -10 85 0 1 -5 2 -11 2 -6 0 -9 -7 -6 -15 4 -8 2 -17 -3 -20 -6 -4
-10 -33 -10 -66 0 -33 -5 -80 -11 -104 -13 -50 -53 -100 -74 -91 -9 3 -23 -8
-36 -27 -31 -44 -80 -86 -101 -87 -15 0 -18 10 -18 68 0 57 5 77 36 137 71
138 96 221 95 315 0 100 11 120 69 120 35 0 39 3 54 40 10 24 16 70 16 113 0
60 4 77 21 96 24 26 53 21 86 -14z m-1833 -798 c13 -104 13 -117 -4 -114 -35
5 -52 66 -36 134 10 44 34 32 40 -20z m63 17 c8 -22 -15 -43 -27 -24 -5 8 -10
21 -10 28 0 17 30 15 37 -4z m881 -139 c14 -33 32 -67 39 -76 7 -9 11 -18 7
-21 -8 -9 -44 3 -44 14 0 5 -4 7 -8 4 -20 -12 -49 34 -58 92 -4 25 -2 42 5 46
6 4 11 17 12 29 0 25 -2 29 47 -88z m-1330 -75 c26 -16 32 -26 32 -56 0 -52
-46 -96 -97 -92 -30 2 -42 10 -60 37 -30 44 -29 53 8 96 36 41 68 45 117 15z
m1547 -30 c3 -5 1 -10 -4 -10 -6 0 -11 5 -11 10 0 6 2 10 4 10 3 0 8 -4 11
-10z m-1370 -138 c-20 -39 -2 -171 30 -227 27 -45 33 -67 13 -47 -7 7 -20 12
-29 12 -21 0 -25 11 -28 73 -1 27 -12 64 -23 84 l-21 35 28 54 c28 53 56 69
30 16z m1246 -24 c21 -62 23 -103 6 -175 -11 -46 -14 -50 -24 -34 -6 10 -9 36
-6 57 2 22 0 75 -6 119 -14 113 -2 126 30 33z m99 -8 c13 -25 19 -56 19 -87
l-2 -48 -6 57 c-4 39 -13 64 -29 80 -12 14 -19 28 -15 31 10 11 11 10 33 -33z
m278 -61 c10 -19 12 -89 8 -319 -3 -162 -6 -305 -6 -317 0 -27 -17 -29 -64 -9
l-33 14 -6 123 c-3 68 -11 180 -16 249 -23 274 -24 249 9 281 27 28 31 29 62
16 18 -7 39 -24 46 -38z m-1441 -41 c-3 -7 -5 -2 -5 12 0 14 2 19 5 13 2 -7 2
-19 0 -25z m-25 -40 c11 -35 13 -56 7 -63 -7 -7 -8 -4 -4 6 4 11 0 18 -14 22
-17 4 -21 13 -21 46 0 56 13 51 32 -11z m1147 30 c0 -7 -4 -22 -9 -33 -7 -17
-9 -15 -9 13 -1 17 4 32 9 32 6 0 10 -6 9 -12z m42 -57 c6 9 9 -7 8 -46 l0
-60 -15 35 c-17 36 -19 50 -14 85 2 17 3 16 7 -4 4 -19 7 -21 14 -10z m-1164
-56 c0 -8 -4 -15 -9 -15 -10 0 -11 14 -1 23 9 10 10 9 10 -8z m-77 -110 c-8
-55 -21 -72 -19 -24 2 44 8 69 18 69 4 0 5 -20 1 -45z m54 -137 c10 -51 57
-168 67 -168 5 0 9 -7 9 -15 0 -13 -9 -15 -59 -9 -69 7 -94 -3 -117 -49 -9
-18 -18 -34 -20 -36 -2 -2 -45 -5 -96 -8 -108 -4 -164 13 -174 54 -11 41 25
68 124 93 24 6 52 20 62 30 24 24 97 60 122 60 21 0 42 35 35 61 -4 15 0 19
18 19 17 0 24 -7 29 -32z m1065 -376 c6 -11 10 -47 10 -79 -1 -51 -2 -54 -9
-23 -4 19 -8 28 -9 20 -1 -9 -6 -5 -12 10 -7 17 -7 26 0 28 6 2 11 11 11 20 0
11 -3 13 -8 6 -4 -7 -15 -8 -27 -3 -11 4 -15 8 -10 8 6 1 11 29 12 64 4 103
15 124 24 41 4 -39 12 -80 18 -92z m-1938 -62 c33 -9 40 -18 49 -60 1 -2 -3
-6 -9 -8 -6 -2 -11 6 -11 17 0 12 -3 21 -6 21 -12 0 -33 -35 -34 -56 0 -30
-20 -44 -62 -44 -31 0 -40 5 -53 30 -21 40 -19 50 12 82 29 30 55 34 114 18z
m384 -59 c7 -13 -5 -20 -72 -37 -32 -8 -79 -23 -105 -34 -26 -11 -53 -19 -60
-18 -7 2 -12 -3 -10 -10 1 -8 -2 -12 -8 -10 -7 2 -11 7 -11 11 1 4 1 13 1 21
0 8 9 18 20 21 11 3 20 12 20 20 0 7 10 12 24 11 24 -1 25 -22 2 -38 -17 -12
7 -9 24 2 8 5 11 10 7 10 -14 0 28 39 53 48 33 12 108 14 115 3z"/>
<path d="M176 1861 c-4 -7 -5 -15 -2 -18 9 -9 19 4 14 18 -4 11 -6 11 -12 0z"/>
<path d="M183 1488 c-18 -20 -28 -61 -24 -104 1 -13 51 -37 59 -29 3 3 6 22 7
43 1 20 5 44 9 53 4 9 0 25 -11 38 l-18 22 -22 -23z"/>
</g>
</svg>
