<?xml version="1.0" encoding="utf-8"?>
<!-- Generator: Adobe Illustrator 19.2.1, SVG Export Plug-In . SVG Version: 6.00 Build 0)  -->
<svg version="1.1" id="Layer_1" xmlns="http://www.w3.org/2000/svg" xmlns:xlink="http://www.w3.org/1999/xlink" x="0px" y="0px"
	 viewBox="0 0 387 230" style="enable-background:new 0 0 387 230;" xml:space="preserve">
<style type="text/css">
	.st0{fill:#85BF5A;}
	.st1{fill:#569146;}
	.st2{fill:#15589F;}
	.st3{fill:#FFFFFF;}
</style>
<g>
	<g>
		<g>
			<rect class="st0" width="387" height="58"/>
			<rect y="58" class="st1" width="387" height="56"/>
			<rect y="114" class="st0" width="387" height="60"/>
			<rect y="174" class="st1" width="387" height="56"/>
			<path class="st2" d="M58.2,0H0v230h57.5l0,0c62.9,0,116.2-50.7,116.2-114.7S122.3,0,58.2,0z"/>
		</g>
		<g>
			<path class="st3" d="M116.5,157.4c-5.4,0-8.1-2.7-10.5-5.1c-2.2-2.2-4.1-4-7.9-4c-3.9,0-5.7,1.9-7.9,4c-2.4,2.4-5.1,5.1-10.5,5.1
				s-8.1-2.7-10.5-5.1c-2.2-2.2-4.1-4-7.9-4s-5.7,1.9-7.9,4c-2.4,2.4-5.1,5.1-10.5,5.1s-8.1-2.7-10.5-5.1c-2.2-2.2-4.1-4-7.9-4
				c-1,0-1.8-0.8-1.8-1.8s0.8-1.8,1.8-1.8c5.4,0,8.1,2.7,10.5,5.1c2.2,2.2,4.1,4,7.9,4s5.7-1.9,7.9-4c2.4-2.4,5.1-5.1,10.5-5.1
				s8.1,2.7,10.5,5.1c2.2,2.2,4.1,4,7.9,4c3.9,0,5.7-1.9,7.9-4c2.4-2.4,5.1-5.1,10.5-5.1s8.1,2.7,10.5,5.1c2.2,2.2,4.1,4,7.9,4
				c3.9,0,5.7-1.9,7.9-4c2.4-2.4,5.1-5.1,10.5-5.1c1,0,1.8,0.8,1.8,1.8s-0.8,1.8-1.8,1.8c-3.9,0-5.7,1.9-7.9,4
				C124.5,154.7,121.8,157.4,116.5,157.4z"/>
			<path class="st3" d="M116.5,120.6c-5.4,0-8.1-2.7-10.5-5.1c-2.2-2.2-4.1-4-7.9-4c-3.9,0-5.7,1.9-7.9,4c-2.4,2.4-5.1,5.1-10.5,5.1
				s-8.1-2.7-10.5-5.1c-2.2-2.2-4.1-4-7.9-4s-5.7,1.9-7.9,4c-2.4,2.4-5.1,5.1-10.5,5.1s-8.1-2.7-10.5-5.1c-2.2-2.2-4.1-4-7.9-4
				c-1,0-1.8-0.8-1.8-1.8s0.8-1.8,1.8-1.8c5.4,0,8.1,2.7,10.5,5.1c2.2,2.2,4.1,4,7.9,4s5.7-1.9,7.9-4c2.4-2.4,5.1-5.1,10.5-5.1
				s8.1,2.7,10.5,5.1c2.2,2.2,4.1,4,7.9,4c3.9,0,5.7-1.9,7.9-4c2.4-2.4,5.1-5.1,10.5-5.1s8.1,2.7,10.5,5.1c2.2,2.2,4.1,4,7.9,4
				c3.9,0,5.7-1.9,7.9-4c2.4-2.4,5.1-5.1,10.5-5.1c1,0,1.8,0.8,1.8,1.8s-0.8,1.8-1.8,1.8c-3.9,0-5.7,1.9-7.9,4
				C124.5,117.9,121.8,120.6,116.5,120.6z"/>
			<path class="st3" d="M116.5,83.4c-5.4,0-8.1-2.7-10.5-5.1c-2.2-2.2-4.1-4-7.9-4c-3.9,0-5.7,1.9-7.9,4c-2.4,2.4-5.1,5.1-10.5,5.1
				s-8.1-2.7-10.5-5.1c-2.2-2.2-4.1-4-7.9-4s-5.7,1.9-7.9,4c-2.4,2.4-5.1,5.1-10.5,5.1s-8.1-2.7-10.5-5.1c-2.2-2.2-4.1-4-7.9-4
				c-1,0-1.8-0.8-1.8-1.8s0.8-1.8,1.8-1.8c5.4,0,8.1,2.7,10.5,5.1c2.2,2.2,4.1,4,7.9,4s5.7-1.9,7.9-4c2.4-2.4,5.1-5.1,10.5-5.1
				s8.1,2.7,10.5,5.1c2.2,2.2,4.1,4,7.9,4c3.9,0,5.7-1.9,7.9-4c2.4-2.4,5.1-5.1,10.5-5.1s8.1,2.7,10.5,5.1c2.2,2.2,4.1,4,7.9,4
				c3.9,0,5.7-1.9,7.9-4c2.4-2.4,5.1-5.1,10.5-5.1c1,0,1.8,0.8,1.8,1.8s-0.8,1.8-1.8,1.8c-3.9,0-5.7,1.9-7.9,4
				C124.5,80.7,121.8,83.4,116.5,83.4z"/>
			<g>
				<polygon class="st3" points="76.3,44.5 79.9,37.9 83.5,44.5 90.1,48.1 83.5,51.7 79.9,58.4 76.3,51.7 69.6,48.1 				"/>
				<path class="st3" d="M79.9,59.1c-0.3,0-0.5-0.1-0.6-0.4l-3.5-6.5l-6.5-3.5c-0.2-0.1-0.4-0.4-0.4-0.6s0.1-0.5,0.4-0.6l6.5-3.5
					l3.5-6.4c0.2-0.5,1-0.5,1.2,0L84,44l6.4,3.5c0.2,0.1,0.4,0.4,0.4,0.6s-0.1,0.5-0.4,0.6L84,52.2l-3.5,6.5
					C80.4,59,80.2,59.1,79.9,59.1z M71.1,48.1l5.5,3c0.1,0.1,0.2,0.2,0.3,0.3l3,5.5l3-5.5c0.1-0.1,0.2-0.2,0.3-0.3l5.5-3l-5.5-3
					c-0.1-0.1-0.2-0.2-0.3-0.3l-3-5.5l-3,5.5c-0.1,0.1-0.2,0.2-0.3,0.3L71.1,48.1z"/>
			</g>
			<g>
				<polygon class="st3" points="76.3,180.8 79.9,174.2 83.5,180.8 90.1,184.4 83.5,188.1 79.9,194.7 76.3,188.1 69.6,184.4 				"/>
				<path class="st3" d="M79.9,195.4c-0.3,0-0.5-0.1-0.6-0.4l-3.5-6.4l-6.5-3.6c-0.2-0.1-0.4-0.4-0.4-0.6s0.1-0.5,0.4-0.6l6.5-3.5
					l3.5-6.4c0.2-0.5,1-0.5,1.2,0l3.5,6.4l6.4,3.5c0.2,0.1,0.4,0.4,0.4,0.6s-0.1,0.5-0.4,0.6l-6.4,3.6l-3.5,6.4
					C80.4,195.3,80.2,195.4,79.9,195.4z M71.1,184.4l5.6,3.1c0.1,0.1,0.2,0.2,0.3,0.3l3,5.5l3-5.5c0.1-0.1,0.2-0.2,0.3-0.3l5.5-3.1
					l-5.5-3c-0.1-0.1-0.2-0.2-0.3-0.3l-3-5.5l-3,5.5c-0.1,0.1-0.2,0.2-0.3,0.3L71.1,184.4z"/>
			</g>
		</g>
	</g>
</g>
</svg>
